<mxfile host="app.diagrams.net" agent="Mozilla/5.0 (Windows NT 10.0; Win64; x64) AppleWebKit/537.36 (KHTML, like Gecko) Chrome/137.0.0.0 Safari/537.36 Edg/137.0.0.0" version="27.1.4">
  <diagram name="Page-1" id="ie7BSOw2RiuIQB37MEOr">
    <mxGraphModel dx="778" dy="506" grid="1" gridSize="10" guides="1" tooltips="1" connect="1" arrows="1" fold="1" page="1" pageScale="1" pageWidth="850" pageHeight="1100" math="0" shadow="0">
      <root>
        <mxCell id="0" />
        <mxCell id="1" parent="0" />
        <mxCell id="_lAkpM7R5aO0RYzhL1R2-1" value="AWS Cloud" style="points=[[0,0],[0.25,0],[0.5,0],[0.75,0],[1,0],[1,0.25],[1,0.5],[1,0.75],[1,1],[0.75,1],[0.5,1],[0.25,1],[0,1],[0,0.75],[0,0.5],[0,0.25]];outlineConnect=0;gradientColor=none;html=1;whiteSpace=wrap;fontSize=12;fontStyle=0;container=1;pointerEvents=0;collapsible=0;recursiveResize=0;shape=mxgraph.aws4.group;grIcon=mxgraph.aws4.group_aws_cloud_alt;strokeColor=#232F3E;fillColor=none;verticalAlign=top;align=left;spacingLeft=30;fontColor=#232F3E;dashed=0;" vertex="1" parent="1">
          <mxGeometry x="210" y="76.2" width="640" height="420" as="geometry" />
        </mxCell>
        <mxCell id="_lAkpM7R5aO0RYzhL1R2-2" value="App tier subnet 1" style="points=[[0,0],[0.25,0],[0.5,0],[0.75,0],[1,0],[1,0.25],[1,0.5],[1,0.75],[1,1],[0.75,1],[0.5,1],[0.25,1],[0,1],[0,0.75],[0,0.5],[0,0.25]];outlineConnect=0;gradientColor=none;html=1;whiteSpace=wrap;fontSize=12;fontStyle=0;container=0;pointerEvents=0;collapsible=0;recursiveResize=0;shape=mxgraph.aws4.group;grIcon=mxgraph.aws4.group_security_group;grStroke=0;strokeColor=#00A4A6;fillColor=#E6F6F7;verticalAlign=top;align=left;spacingLeft=30;fontColor=#147EBA;dashed=0;" vertex="1" parent="_lAkpM7R5aO0RYzhL1R2-1">
          <mxGeometry x="290" y="105" width="130" height="90" as="geometry" />
        </mxCell>
        <mxCell id="_lAkpM7R5aO0RYzhL1R2-3" value="Data tier subnet 1" style="points=[[0,0],[0.25,0],[0.5,0],[0.75,0],[1,0],[1,0.25],[1,0.5],[1,0.75],[1,1],[0.75,1],[0.5,1],[0.25,1],[0,1],[0,0.75],[0,0.5],[0,0.25]];outlineConnect=0;gradientColor=none;html=1;whiteSpace=wrap;fontSize=12;fontStyle=0;container=1;pointerEvents=0;collapsible=0;recursiveResize=0;shape=mxgraph.aws4.group;grIcon=mxgraph.aws4.group_security_group;grStroke=0;strokeColor=#00A4A6;fillColor=#E6F6F7;verticalAlign=top;align=left;spacingLeft=30;fontColor=#147EBA;dashed=0;" vertex="1" parent="_lAkpM7R5aO0RYzhL1R2-1">
          <mxGeometry x="490" y="105" width="130" height="90" as="geometry" />
        </mxCell>
        <mxCell id="_lAkpM7R5aO0RYzhL1R2-4" value="" style="sketch=0;points=[[0,0,0],[0.25,0,0],[0.5,0,0],[0.75,0,0],[1,0,0],[0,1,0],[0.25,1,0],[0.5,1,0],[0.75,1,0],[1,1,0],[0,0.25,0],[0,0.5,0],[0,0.75,0],[1,0.25,0],[1,0.5,0],[1,0.75,0]];outlineConnect=0;fontColor=#232F3E;fillColor=#C925D1;strokeColor=#ffffff;dashed=0;verticalLabelPosition=bottom;verticalAlign=top;align=center;html=1;fontSize=12;fontStyle=0;aspect=fixed;shape=mxgraph.aws4.resourceIcon;resIcon=mxgraph.aws4.database;" vertex="1" parent="_lAkpM7R5aO0RYzhL1R2-3">
          <mxGeometry x="50" y="41" width="38" height="38" as="geometry" />
        </mxCell>
        <mxCell id="_lAkpM7R5aO0RYzhL1R2-5" value="App tier subnet 2" style="points=[[0,0],[0.25,0],[0.5,0],[0.75,0],[1,0],[1,0.25],[1,0.5],[1,0.75],[1,1],[0.75,1],[0.5,1],[0.25,1],[0,1],[0,0.75],[0,0.5],[0,0.25]];outlineConnect=0;gradientColor=none;html=1;whiteSpace=wrap;fontSize=12;fontStyle=0;container=0;pointerEvents=0;collapsible=0;recursiveResize=0;shape=mxgraph.aws4.group;grIcon=mxgraph.aws4.group_security_group;grStroke=0;strokeColor=#00A4A6;fillColor=#E6F6F7;verticalAlign=top;align=left;spacingLeft=30;fontColor=#147EBA;dashed=0;" vertex="1" parent="_lAkpM7R5aO0RYzhL1R2-1">
          <mxGeometry x="290" y="265" width="130" height="90" as="geometry" />
        </mxCell>
        <mxCell id="_lAkpM7R5aO0RYzhL1R2-6" value="Data tier subnet 2" style="points=[[0,0],[0.25,0],[0.5,0],[0.75,0],[1,0],[1,0.25],[1,0.5],[1,0.75],[1,1],[0.75,1],[0.5,1],[0.25,1],[0,1],[0,0.75],[0,0.5],[0,0.25]];outlineConnect=0;gradientColor=none;html=1;whiteSpace=wrap;fontSize=12;fontStyle=0;container=1;pointerEvents=0;collapsible=0;recursiveResize=0;shape=mxgraph.aws4.group;grIcon=mxgraph.aws4.group_security_group;grStroke=0;strokeColor=#00A4A6;fillColor=#E6F6F7;verticalAlign=top;align=left;spacingLeft=30;fontColor=#147EBA;dashed=0;" vertex="1" parent="_lAkpM7R5aO0RYzhL1R2-1">
          <mxGeometry x="490" y="265" width="130" height="90" as="geometry" />
        </mxCell>
        <mxCell id="_lAkpM7R5aO0RYzhL1R2-7" value="" style="sketch=0;points=[[0,0,0],[0.25,0,0],[0.5,0,0],[0.75,0,0],[1,0,0],[0,1,0],[0.25,1,0],[0.5,1,0],[0.75,1,0],[1,1,0],[0,0.25,0],[0,0.5,0],[0,0.75,0],[1,0.25,0],[1,0.5,0],[1,0.75,0]];outlineConnect=0;fontColor=#232F3E;fillColor=#C925D1;strokeColor=#ffffff;dashed=0;verticalLabelPosition=bottom;verticalAlign=top;align=center;html=1;fontSize=12;fontStyle=0;aspect=fixed;shape=mxgraph.aws4.resourceIcon;resIcon=mxgraph.aws4.database;" vertex="1" parent="_lAkpM7R5aO0RYzhL1R2-6">
          <mxGeometry x="50" y="41" width="38" height="38" as="geometry" />
        </mxCell>
        <mxCell id="_lAkpM7R5aO0RYzhL1R2-8" value="Auto Scaling group 2" style="points=[[0,0],[0.25,0],[0.5,0],[0.75,0],[1,0],[1,0.25],[1,0.5],[1,0.75],[1,1],[0.75,1],[0.5,1],[0.25,1],[0,1],[0,0.75],[0,0.5],[0,0.25]];outlineConnect=0;gradientColor=none;html=1;whiteSpace=wrap;fontSize=12;fontStyle=0;container=0;pointerEvents=0;collapsible=0;recursiveResize=0;shape=mxgraph.aws4.groupCenter;grIcon=mxgraph.aws4.group_auto_scaling_group;grStroke=1;strokeColor=#D86613;fillColor=none;verticalAlign=top;align=center;fontColor=#D86613;dashed=1;spacingTop=25;" vertex="1" parent="_lAkpM7R5aO0RYzhL1R2-1">
          <mxGeometry x="310" y="20" width="90" height="365" as="geometry" />
        </mxCell>
        <mxCell id="_lAkpM7R5aO0RYzhL1R2-9" value="" style="sketch=0;points=[[0,0,0],[0.25,0,0],[0.5,0,0],[0.75,0,0],[1,0,0],[0,1,0],[0.25,1,0],[0.5,1,0],[0.75,1,0],[1,1,0],[0,0.25,0],[0,0.5,0],[0,0.75,0],[1,0.25,0],[1,0.5,0],[1,0.75,0]];outlineConnect=0;fontColor=#232F3E;fillColor=#ED7100;strokeColor=#ffffff;dashed=0;verticalLabelPosition=bottom;verticalAlign=top;align=center;html=1;fontSize=12;fontStyle=0;aspect=fixed;shape=mxgraph.aws4.resourceIcon;resIcon=mxgraph.aws4.ec2;container=0;" vertex="1" parent="_lAkpM7R5aO0RYzhL1R2-1">
          <mxGeometry x="335" y="145" width="40" height="40" as="geometry" />
        </mxCell>
        <mxCell id="_lAkpM7R5aO0RYzhL1R2-10" value="" style="sketch=0;points=[[0,0,0],[0.25,0,0],[0.5,0,0],[0.75,0,0],[1,0,0],[0,1,0],[0.25,1,0],[0.5,1,0],[0.75,1,0],[1,1,0],[0,0.25,0],[0,0.5,0],[0,0.75,0],[1,0.25,0],[1,0.5,0],[1,0.75,0]];outlineConnect=0;fontColor=#232F3E;fillColor=#ED7100;strokeColor=#ffffff;dashed=0;verticalLabelPosition=bottom;verticalAlign=top;align=center;html=1;fontSize=12;fontStyle=0;aspect=fixed;shape=mxgraph.aws4.resourceIcon;resIcon=mxgraph.aws4.ec2;container=0;" vertex="1" parent="_lAkpM7R5aO0RYzhL1R2-1">
          <mxGeometry x="335" y="305" width="40" height="40" as="geometry" />
        </mxCell>
        <mxCell id="_lAkpM7R5aO0RYzhL1R2-11" value="Web tier subnet 1" style="points=[[0,0],[0.25,0],[0.5,0],[0.75,0],[1,0],[1,0.25],[1,0.5],[1,0.75],[1,1],[0.75,1],[0.5,1],[0.25,1],[0,1],[0,0.75],[0,0.5],[0,0.25]];outlineConnect=0;gradientColor=none;html=1;whiteSpace=wrap;fontSize=12;fontStyle=0;container=0;pointerEvents=0;collapsible=0;recursiveResize=0;shape=mxgraph.aws4.group;grIcon=mxgraph.aws4.group_security_group;grStroke=0;strokeColor=#00A4A6;fillColor=#E6F6F7;verticalAlign=top;align=left;spacingLeft=30;fontColor=#147EBA;dashed=0;" vertex="1" parent="_lAkpM7R5aO0RYzhL1R2-1">
          <mxGeometry x="90" y="105" width="130" height="90" as="geometry" />
        </mxCell>
        <mxCell id="_lAkpM7R5aO0RYzhL1R2-12" value="Web tier subnet 2" style="points=[[0,0],[0.25,0],[0.5,0],[0.75,0],[1,0],[1,0.25],[1,0.5],[1,0.75],[1,1],[0.75,1],[0.5,1],[0.25,1],[0,1],[0,0.75],[0,0.5],[0,0.25]];outlineConnect=0;gradientColor=none;html=1;whiteSpace=wrap;fontSize=12;fontStyle=0;container=0;pointerEvents=0;collapsible=0;recursiveResize=0;shape=mxgraph.aws4.group;grIcon=mxgraph.aws4.group_security_group;grStroke=0;strokeColor=#00A4A6;fillColor=#E6F6F7;verticalAlign=top;align=left;spacingLeft=30;fontColor=#147EBA;dashed=0;" vertex="1" parent="_lAkpM7R5aO0RYzhL1R2-1">
          <mxGeometry x="90" y="265" width="130" height="90" as="geometry" />
        </mxCell>
        <mxCell id="_lAkpM7R5aO0RYzhL1R2-13" value="Auto Scaling group 1" style="points=[[0,0],[0.25,0],[0.5,0],[0.75,0],[1,0],[1,0.25],[1,0.5],[1,0.75],[1,1],[0.75,1],[0.5,1],[0.25,1],[0,1],[0,0.75],[0,0.5],[0,0.25]];outlineConnect=0;gradientColor=none;html=1;whiteSpace=wrap;fontSize=12;fontStyle=0;container=0;pointerEvents=0;collapsible=0;recursiveResize=0;shape=mxgraph.aws4.groupCenter;grIcon=mxgraph.aws4.group_auto_scaling_group;grStroke=1;strokeColor=#D86613;fillColor=none;verticalAlign=top;align=center;fontColor=#D86613;dashed=1;spacingTop=25;" vertex="1" parent="_lAkpM7R5aO0RYzhL1R2-1">
          <mxGeometry x="110" y="20" width="90" height="365" as="geometry" />
        </mxCell>
        <mxCell id="_lAkpM7R5aO0RYzhL1R2-14" value="" style="sketch=0;points=[[0,0,0],[0.25,0,0],[0.5,0,0],[0.75,0,0],[1,0,0],[0,1,0],[0.25,1,0],[0.5,1,0],[0.75,1,0],[1,1,0],[0,0.25,0],[0,0.5,0],[0,0.75,0],[1,0.25,0],[1,0.5,0],[1,0.75,0]];outlineConnect=0;fontColor=#232F3E;fillColor=#ED7100;strokeColor=#ffffff;dashed=0;verticalLabelPosition=bottom;verticalAlign=top;align=center;html=1;fontSize=12;fontStyle=0;aspect=fixed;shape=mxgraph.aws4.resourceIcon;resIcon=mxgraph.aws4.ec2;container=0;" vertex="1" parent="_lAkpM7R5aO0RYzhL1R2-1">
          <mxGeometry x="135" y="145" width="40" height="40" as="geometry" />
        </mxCell>
        <mxCell id="_lAkpM7R5aO0RYzhL1R2-15" value="" style="sketch=0;points=[[0,0,0],[0.25,0,0],[0.5,0,0],[0.75,0,0],[1,0,0],[0,1,0],[0.25,1,0],[0.5,1,0],[0.75,1,0],[1,1,0],[0,0.25,0],[0,0.5,0],[0,0.75,0],[1,0.25,0],[1,0.5,0],[1,0.75,0]];outlineConnect=0;fontColor=#232F3E;fillColor=#ED7100;strokeColor=#ffffff;dashed=0;verticalLabelPosition=bottom;verticalAlign=top;align=center;html=1;fontSize=12;fontStyle=0;aspect=fixed;shape=mxgraph.aws4.resourceIcon;resIcon=mxgraph.aws4.ec2;container=0;" vertex="1" parent="_lAkpM7R5aO0RYzhL1R2-1">
          <mxGeometry x="135" y="305" width="40" height="40" as="geometry" />
        </mxCell>
        <mxCell id="_lAkpM7R5aO0RYzhL1R2-16" style="edgeStyle=orthogonalEdgeStyle;rounded=0;orthogonalLoop=1;jettySize=auto;html=1;startArrow=classic;startFill=1;" edge="1" parent="_lAkpM7R5aO0RYzhL1R2-1" source="_lAkpM7R5aO0RYzhL1R2-4" target="_lAkpM7R5aO0RYzhL1R2-8">
          <mxGeometry relative="1" as="geometry">
            <Array as="points">
              <mxPoint x="470" y="160" />
              <mxPoint x="470" y="230" />
            </Array>
          </mxGeometry>
        </mxCell>
        <mxCell id="_lAkpM7R5aO0RYzhL1R2-17" style="edgeStyle=orthogonalEdgeStyle;rounded=0;orthogonalLoop=1;jettySize=auto;html=1;startArrow=classic;startFill=1;dashed=1;" edge="1" parent="_lAkpM7R5aO0RYzhL1R2-1" source="_lAkpM7R5aO0RYzhL1R2-4" target="_lAkpM7R5aO0RYzhL1R2-7">
          <mxGeometry relative="1" as="geometry" />
        </mxCell>
        <mxCell id="_lAkpM7R5aO0RYzhL1R2-18" value="" style="edgeStyle=orthogonalEdgeStyle;rounded=0;orthogonalLoop=1;jettySize=auto;html=1;startArrow=classic;startFill=1;" edge="1" parent="_lAkpM7R5aO0RYzhL1R2-1" source="_lAkpM7R5aO0RYzhL1R2-20" target="_lAkpM7R5aO0RYzhL1R2-8">
          <mxGeometry relative="1" as="geometry">
            <Array as="points">
              <mxPoint x="310" y="230" />
              <mxPoint x="310" y="230" />
            </Array>
          </mxGeometry>
        </mxCell>
        <mxCell id="_lAkpM7R5aO0RYzhL1R2-19" value="" style="edgeStyle=orthogonalEdgeStyle;rounded=0;orthogonalLoop=1;jettySize=auto;html=1;startArrow=classic;startFill=1;" edge="1" parent="_lAkpM7R5aO0RYzhL1R2-1" source="_lAkpM7R5aO0RYzhL1R2-20" target="_lAkpM7R5aO0RYzhL1R2-13">
          <mxGeometry relative="1" as="geometry">
            <Array as="points">
              <mxPoint x="210" y="230" />
              <mxPoint x="210" y="230" />
            </Array>
          </mxGeometry>
        </mxCell>
        <mxCell id="_lAkpM7R5aO0RYzhL1R2-20" value="" style="sketch=0;points=[[0,0,0],[0.25,0,0],[0.5,0,0],[0.75,0,0],[1,0,0],[0,1,0],[0.25,1,0],[0.5,1,0],[0.75,1,0],[1,1,0],[0,0.25,0],[0,0.5,0],[0,0.75,0],[1,0.25,0],[1,0.5,0],[1,0.75,0]];outlineConnect=0;fontColor=#232F3E;fillColor=#ED7100;strokeColor=#ffffff;dashed=0;verticalLabelPosition=bottom;verticalAlign=top;align=center;html=1;fontSize=12;fontStyle=0;aspect=fixed;shape=mxgraph.aws4.resourceIcon;resIcon=mxgraph.aws4.elastic_load_balancing;" vertex="1" parent="_lAkpM7R5aO0RYzhL1R2-1">
          <mxGeometry x="236" y="210" width="40" height="40" as="geometry" />
        </mxCell>
        <mxCell id="_lAkpM7R5aO0RYzhL1R2-21" value="" style="edgeStyle=orthogonalEdgeStyle;rounded=0;orthogonalLoop=1;jettySize=auto;html=1;startArrow=classic;startFill=1;" edge="1" parent="_lAkpM7R5aO0RYzhL1R2-1" source="_lAkpM7R5aO0RYzhL1R2-22" target="_lAkpM7R5aO0RYzhL1R2-13">
          <mxGeometry relative="1" as="geometry">
            <Array as="points">
              <mxPoint x="110" y="230" />
              <mxPoint x="110" y="230" />
            </Array>
          </mxGeometry>
        </mxCell>
        <mxCell id="_lAkpM7R5aO0RYzhL1R2-22" value="" style="sketch=0;points=[[0,0,0],[0.25,0,0],[0.5,0,0],[0.75,0,0],[1,0,0],[0,1,0],[0.25,1,0],[0.5,1,0],[0.75,1,0],[1,1,0],[0,0.25,0],[0,0.5,0],[0,0.75,0],[1,0.25,0],[1,0.5,0],[1,0.75,0]];outlineConnect=0;fontColor=#232F3E;fillColor=#ED7100;strokeColor=#ffffff;dashed=0;verticalLabelPosition=bottom;verticalAlign=top;align=center;html=1;fontSize=12;fontStyle=0;aspect=fixed;shape=mxgraph.aws4.resourceIcon;resIcon=mxgraph.aws4.elastic_load_balancing;" vertex="1" parent="_lAkpM7R5aO0RYzhL1R2-1">
          <mxGeometry x="31" y="210" width="40" height="40" as="geometry" />
        </mxCell>
        <mxCell id="_lAkpM7R5aO0RYzhL1R2-23" value="&lt;span&gt;App tier target group&lt;/span&gt;" style="text;html=1;align=center;verticalAlign=middle;whiteSpace=wrap;rounded=0;fontStyle=1;labelBackgroundColor=none;fillColor=#fff2cc;strokeColor=#d6b656;" vertex="1" parent="_lAkpM7R5aO0RYzhL1R2-1">
          <mxGeometry x="293.75" y="386" width="116.25" height="30" as="geometry" />
        </mxCell>
        <mxCell id="_lAkpM7R5aO0RYzhL1R2-24" value="&lt;span&gt;Web tier target group&lt;/span&gt;" style="text;html=1;align=center;verticalAlign=middle;whiteSpace=wrap;rounded=0;fontStyle=1;labelBackgroundColor=none;fillColor=#fff2cc;strokeColor=#d6b656;" vertex="1" parent="_lAkpM7R5aO0RYzhL1R2-1">
          <mxGeometry x="93.75" y="386" width="122.5" height="30" as="geometry" />
        </mxCell>
        <mxCell id="_lAkpM7R5aO0RYzhL1R2-25" value="&lt;span&gt;Data tier&lt;/span&gt;" style="text;html=1;align=center;verticalAlign=middle;whiteSpace=wrap;rounded=0;fontStyle=1;labelBackgroundColor=none;fillColor=#fff2cc;strokeColor=#d6b656;" vertex="1" parent="_lAkpM7R5aO0RYzhL1R2-1">
          <mxGeometry x="493.75" y="385" width="122.5" height="30" as="geometry" />
        </mxCell>
        <mxCell id="_lAkpM7R5aO0RYzhL1R2-26" value="Load Balancer 1" style="text;html=1;align=center;verticalAlign=middle;whiteSpace=wrap;rounded=0;" vertex="1" parent="_lAkpM7R5aO0RYzhL1R2-1">
          <mxGeometry x="21" y="250" width="60" height="30" as="geometry" />
        </mxCell>
        <mxCell id="_lAkpM7R5aO0RYzhL1R2-27" value="Load Balancer 2" style="text;html=1;align=center;verticalAlign=middle;whiteSpace=wrap;rounded=0;" vertex="1" parent="_lAkpM7R5aO0RYzhL1R2-1">
          <mxGeometry x="225" y="250" width="60" height="30" as="geometry" />
        </mxCell>
        <mxCell id="_lAkpM7R5aO0RYzhL1R2-43" value="AZ 1" style="fillColor=none;strokeColor=#147EBA;dashed=1;verticalAlign=top;fontStyle=0;fontColor=#147EBA;whiteSpace=wrap;html=1;" vertex="1" parent="_lAkpM7R5aO0RYzhL1R2-1">
          <mxGeometry x="80" y="80" width="550" height="130" as="geometry" />
        </mxCell>
        <mxCell id="_lAkpM7R5aO0RYzhL1R2-44" value="AZ 2" style="fillColor=none;strokeColor=#147EBA;dashed=1;verticalAlign=top;fontStyle=0;fontColor=#147EBA;whiteSpace=wrap;html=1;" vertex="1" parent="_lAkpM7R5aO0RYzhL1R2-1">
          <mxGeometry x="80" y="245" width="550" height="130" as="geometry" />
        </mxCell>
        <mxCell id="_lAkpM7R5aO0RYzhL1R2-28" value="" style="sketch=0;points=[[0,0,0],[0.25,0,0],[0.5,0,0],[0.75,0,0],[1,0,0],[0,1,0],[0.25,1,0],[0.5,1,0],[0.75,1,0],[1,1,0],[0,0.25,0],[0,0.5,0],[0,0.75,0],[1,0.25,0],[1,0.5,0],[1,0.75,0]];outlineConnect=0;fontColor=#232F3E;fillColor=#8C4FFF;strokeColor=#ffffff;dashed=0;verticalLabelPosition=bottom;verticalAlign=top;align=center;html=1;fontSize=12;fontStyle=0;aspect=fixed;shape=mxgraph.aws4.resourceIcon;resIcon=mxgraph.aws4.route_53;" vertex="1" parent="1">
          <mxGeometry x="47.4" y="330" width="39" height="39" as="geometry" />
        </mxCell>
        <mxCell id="_lAkpM7R5aO0RYzhL1R2-29" value="" style="edgeStyle=orthogonalEdgeStyle;rounded=0;orthogonalLoop=1;jettySize=auto;html=1;" edge="1" parent="1" source="_lAkpM7R5aO0RYzhL1R2-30" target="_lAkpM7R5aO0RYzhL1R2-28">
          <mxGeometry relative="1" as="geometry" />
        </mxCell>
        <mxCell id="_lAkpM7R5aO0RYzhL1R2-30" value="" style="sketch=0;outlineConnect=0;fontColor=#232F3E;gradientColor=none;fillColor=#232F3D;strokeColor=none;dashed=0;verticalLabelPosition=bottom;verticalAlign=top;align=center;html=1;fontSize=12;fontStyle=0;aspect=fixed;pointerEvents=1;shape=mxgraph.aws4.users;" vertex="1" parent="1">
          <mxGeometry x="50.85" y="433.1" width="33.1" height="33.1" as="geometry" />
        </mxCell>
        <mxCell id="_lAkpM7R5aO0RYzhL1R2-31" value="On-premises Infrastructure" style="points=[[0,0],[0.25,0],[0.5,0],[0.75,0],[1,0],[1,0.25],[1,0.5],[1,0.75],[1,1],[0.75,1],[0.5,1],[0.25,1],[0,1],[0,0.75],[0,0.5],[0,0.25]];outlineConnect=0;gradientColor=none;html=1;whiteSpace=wrap;fontSize=12;fontStyle=0;container=1;pointerEvents=0;collapsible=0;recursiveResize=0;shape=mxgraph.aws4.group;grIcon=mxgraph.aws4.group_corporate_data_center;strokeColor=#7D8998;fillColor=none;verticalAlign=top;align=left;spacingLeft=30;fontColor=#5A6C86;dashed=0;" vertex="1" parent="1">
          <mxGeometry x="10" y="70" width="110" height="110" as="geometry" />
        </mxCell>
        <mxCell id="_lAkpM7R5aO0RYzhL1R2-32" value="" style="sketch=0;outlineConnect=0;fontColor=#232F3E;gradientColor=none;fillColor=#8C4FFF;strokeColor=none;dashed=0;verticalLabelPosition=bottom;verticalAlign=top;align=center;html=1;fontSize=12;fontStyle=0;aspect=fixed;pointerEvents=1;shape=mxgraph.aws4.customer_gateway;" vertex="1" parent="_lAkpM7R5aO0RYzhL1R2-31">
          <mxGeometry x="38.4" y="67" width="38" height="38" as="geometry" />
        </mxCell>
        <mxCell id="_lAkpM7R5aO0RYzhL1R2-33" value="Polytechnic Gateway" style="text;html=1;align=center;verticalAlign=middle;whiteSpace=wrap;rounded=0;" vertex="1" parent="_lAkpM7R5aO0RYzhL1R2-31">
          <mxGeometry x="27.4" y="40" width="60" height="30" as="geometry" />
        </mxCell>
        <mxCell id="_lAkpM7R5aO0RYzhL1R2-34" style="edgeStyle=orthogonalEdgeStyle;rounded=0;orthogonalLoop=1;jettySize=auto;html=1;startArrow=classic;startFill=1;" edge="1" parent="1" source="_lAkpM7R5aO0RYzhL1R2-35" target="_lAkpM7R5aO0RYzhL1R2-22">
          <mxGeometry relative="1" as="geometry" />
        </mxCell>
        <mxCell id="_lAkpM7R5aO0RYzhL1R2-35" value="" style="sketch=0;points=[[0,0,0],[0.25,0,0],[0.5,0,0],[0.75,0,0],[1,0,0],[0,1,0],[0.25,1,0],[0.5,1,0],[0.75,1,0],[1,1,0],[0,0.25,0],[0,0.5,0],[0,0.75,0],[1,0.25,0],[1,0.5,0],[1,0.75,0]];outlineConnect=0;fontColor=#232F3E;fillColor=#8C4FFF;strokeColor=#ffffff;dashed=0;verticalLabelPosition=bottom;verticalAlign=top;align=center;html=1;fontSize=12;fontStyle=0;aspect=fixed;shape=mxgraph.aws4.resourceIcon;resIcon=mxgraph.aws4.transit_gateway;" vertex="1" parent="1">
          <mxGeometry x="48.4" y="210" width="38" height="38" as="geometry" />
        </mxCell>
        <mxCell id="_lAkpM7R5aO0RYzhL1R2-36" style="edgeStyle=orthogonalEdgeStyle;rounded=0;orthogonalLoop=1;jettySize=auto;html=1;entryX=0.5;entryY=0;entryDx=0;entryDy=0;entryPerimeter=0;" edge="1" parent="1" source="_lAkpM7R5aO0RYzhL1R2-32" target="_lAkpM7R5aO0RYzhL1R2-35">
          <mxGeometry relative="1" as="geometry" />
        </mxCell>
        <mxCell id="_lAkpM7R5aO0RYzhL1R2-37" value="Transit Gateway" style="text;html=1;align=center;verticalAlign=middle;whiteSpace=wrap;rounded=0;" vertex="1" parent="1">
          <mxGeometry x="35" y="248" width="60" height="30" as="geometry" />
        </mxCell>
        <mxCell id="_lAkpM7R5aO0RYzhL1R2-38" style="edgeStyle=orthogonalEdgeStyle;rounded=0;orthogonalLoop=1;jettySize=auto;html=1;entryX=0;entryY=0.5;entryDx=0;entryDy=0;entryPerimeter=0;startArrow=classic;startFill=1;" edge="1" parent="1" source="_lAkpM7R5aO0RYzhL1R2-28" target="_lAkpM7R5aO0RYzhL1R2-22">
          <mxGeometry relative="1" as="geometry" />
        </mxCell>
        <mxCell id="_lAkpM7R5aO0RYzhL1R2-39" value="Route 53" style="text;html=1;align=center;verticalAlign=middle;whiteSpace=wrap;rounded=0;" vertex="1" parent="1">
          <mxGeometry x="36.9" y="300" width="60" height="30" as="geometry" />
        </mxCell>
        <mxCell id="_lAkpM7R5aO0RYzhL1R2-40" value="Students" style="text;html=1;align=center;verticalAlign=middle;whiteSpace=wrap;rounded=0;" vertex="1" parent="1">
          <mxGeometry x="37.4" y="466.2" width="60" height="30" as="geometry" />
        </mxCell>
        <mxCell id="_lAkpM7R5aO0RYzhL1R2-41" value="" style="sketch=0;outlineConnect=0;fontColor=#232F3E;gradientColor=none;fillColor=#232F3D;strokeColor=none;dashed=0;verticalLabelPosition=bottom;verticalAlign=top;align=center;html=1;fontSize=12;fontStyle=0;aspect=fixed;pointerEvents=1;shape=mxgraph.aws4.internet_alt2;" vertex="1" parent="1">
          <mxGeometry x="79" y="380" width="41" height="41" as="geometry" />
        </mxCell>
        <mxCell id="_lAkpM7R5aO0RYzhL1R2-42" value="Internet" style="text;html=1;align=center;verticalAlign=middle;whiteSpace=wrap;rounded=0;" vertex="1" parent="1">
          <mxGeometry x="79" y="421" width="60" height="30" as="geometry" />
        </mxCell>
      </root>
    </mxGraphModel>
  </diagram>
</mxfile>
